<svg xmlns="http://www.w3.org/2000/svg" version="1.1" xmlns:xlink="http://www.w3.org/1999/xlink" width="512" height="512" x="0" y="0" viewBox="0 0 64 64" style="enable-background:new 0 0 512 512" xml:space="preserve" data--h-bstatus="0OBSERVED"><g data--h-bstatus="0OBSERVED"><path d="M18.68 54.94h26.65c1.38 0 2.7-.57 3.64-1.58s1.43-2.36 1.34-3.81l-3.69-27.01a.993.993 0 0 0-.99-.86h-3.84v-2.84c0-5.4-4.39-9.79-9.79-9.79s-9.79 4.39-9.79 9.79v2.84h-3.84c-.5 0-.92.37-.99.86l-3.69 27.08c-.09 1.37.4 2.73 1.35 3.73a4.926 4.926 0 0 0 3.64 1.59zm5.53-36.09c0-4.3 3.49-7.79 7.79-7.79s7.79 3.49 7.79 7.79v2.84H24.21zm-4.96 4.84h25.51l3.56 26.07c.05.84-.24 1.63-.81 2.24s-1.35.95-2.19.95H18.68c-.84 0-1.61-.34-2.19-.95-.57-.61-.86-1.41-.81-2.17z" fill="#000000" opacity="1" data-original="#000000" data--h-bstatus="0OBSERVED"></path><path d="M32 37.9c5.4 0 9.79-4.39 9.79-9.79V26.6c0-.55-.45-1-1-1s-1 .45-1 1v1.51c0 4.3-3.5 7.79-7.79 7.79s-7.79-3.49-7.79-7.79V26.6c0-.55-.45-1-1-1s-1 .45-1 1v1.51c0 5.39 4.39 9.79 9.79 9.79z" fill="#000000" opacity="1" data-original="#000000" data--h-bstatus="0OBSERVED"></path></g></svg>