<svg height="36" viewBox="0 0 36 36" width="36" xmlns="http://www.w3.org/2000/svg">
    <path
        d="M18 3.09546C18.6344 3.09546 19.2568 3.2681 19.8008 3.59448L31.8008 10.7947C32.319 11.1056 32.7482 11.5452 33.0459 12.071C33.3437 12.597 33.5 13.1913 33.5 13.7957V30.0974C33.5 31.0257 33.131 31.9156 32.4746 32.572C31.8182 33.2284 30.9283 33.5974 30 33.5974H22V25.5974C22 24.5366 21.5783 23.5194 20.8281 22.7693C20.078 22.0192 19.0608 21.5974 18 21.5974C16.9392 21.5974 15.922 22.0192 15.1719 22.7693C14.4217 23.5194 14 24.5366 14 25.5974V33.5974H6C5.07174 33.5974 4.18177 33.2284 3.52539 32.572C2.86904 31.9156 2.5 31.0257 2.5 30.0974V13.7957C2.49999 13.1913 2.65635 12.597 2.9541 12.071C3.25184 11.5452 3.68105 11.1056 4.19922 10.7947L16.1992 3.59448C16.7432 3.2681 17.3656 3.09546 18 3.09546Z"
        fill="none" stroke="currentColor" stroke-width="2" />
</svg>
