<svg xmlns="http://www.w3.org/2000/svg" version="1.1" xmlns:xlink="http://www.w3.org/1999/xlink" width="512" height="512" x="0" y="0" viewBox="0 0 480 480" style="enable-background:new 0 0 512 512" xml:space="preserve" data--h-bstatus="0OBSERVED" class=""><defs><linearGradient xlink:href="#a" id="b" x1="-73.92" x2="382.08" y1="461.432" y2="21.432" gradientUnits="userSpaceOnUse" data--h-bstatus="0OBSERVED"></linearGradient><linearGradient xlink:href="#a" id="c" x1="20.936" x2="476.936" y1="559.728" y2="119.728" gradientUnits="userSpaceOnUse" data--h-bstatus="0OBSERVED"></linearGradient><linearGradient xlink:href="#a" id="d" x1="-180.096" x2="275.904" y1="351.392" y2="-88.608" gradientUnits="userSpaceOnUse" data--h-bstatus="0OBSERVED"></linearGradient><linearGradient xlink:href="#a" id="e" x1="-151.168" x2="304.832" y1="381.376" y2="-58.624" gradientUnits="userSpaceOnUse" data--h-bstatus="0OBSERVED"></linearGradient><linearGradient xlink:href="#a" id="f" x1="-120.264" x2="335.736" y1="413.4" y2="-26.6" gradientUnits="userSpaceOnUse" data--h-bstatus="0OBSERVED"></linearGradient><linearGradient xlink:href="#a" id="g" x1="-85.592" x2="370.408" y1="449.328" y2="9.328" gradientUnits="userSpaceOnUse" data--h-bstatus="0OBSERVED"></linearGradient><linearGradient xlink:href="#a" id="h" x1="-89.84" x2="366.16" y1="444.928" y2="4.928" gradientUnits="userSpaceOnUse" data--h-bstatus="0OBSERVED"></linearGradient><linearGradient xlink:href="#a" id="i" x1="-110.352" x2="345.648" y1="423.672" y2="-16.328" gradientUnits="userSpaceOnUse" data--h-bstatus="0OBSERVED"></linearGradient><linearGradient xlink:href="#a" id="j" x1="-44.776" x2="411.224" y1="491.632" y2="51.632" gradientUnits="userSpaceOnUse" data--h-bstatus="0OBSERVED"></linearGradient><linearGradient xlink:href="#a" id="k" x1="-100.008" x2="355.992" y1="434.392" y2="-5.608" gradientUnits="userSpaceOnUse" data--h-bstatus="0OBSERVED"></linearGradient><linearGradient xlink:href="#a" id="l" x1="-47.936" x2="408.064" y1="488.36" y2="48.36" gradientUnits="userSpaceOnUse" data--h-bstatus="0OBSERVED"></linearGradient><linearGradient xlink:href="#a" id="m" x1="2.208" x2="458.208" y1="540.328" y2="100.328" gradientUnits="userSpaceOnUse" data--h-bstatus="0OBSERVED"></linearGradient><linearGradient xlink:href="#a" id="n" x1="-32.96" x2="423.04" y1="503.872" y2="63.872" gradientUnits="userSpaceOnUse" data--h-bstatus="0OBSERVED"></linearGradient><linearGradient xlink:href="#a" id="o" x1="10.624" x2="466.624" y1="549.048" y2="109.048" gradientUnits="userSpaceOnUse" data--h-bstatus="0OBSERVED"></linearGradient><linearGradient xlink:href="#a" id="p" x1="19.04" x2="475.04" y1="557.768" y2="117.768" gradientUnits="userSpaceOnUse" data--h-bstatus="0OBSERVED"></linearGradient><linearGradient xlink:href="#a" id="q" x1="42.184" x2="498.184" y1="581.752" y2="141.752" gradientUnits="userSpaceOnUse" data--h-bstatus="0OBSERVED"></linearGradient><linearGradient xlink:href="#a" id="r" x1="50.6" x2="506.6" y1="590.472" y2="150.472" gradientUnits="userSpaceOnUse" data--h-bstatus="0OBSERVED"></linearGradient></defs><g data--h-bstatus="0OBSERVED"><linearGradient id="a" data--h-bstatus="0OBSERVED"><stop offset="0" stop-color="#fff200" data--h-bstatus="0OBSERVED"></stop><stop offset="1" stop-color="#cd118c" data--h-bstatus="0OBSERVED"></stop></linearGradient><linearGradient xlink:href="#a" id="b" x1="-73.92" x2="382.08" y1="461.432" y2="21.432" gradientUnits="userSpaceOnUse" data--h-bstatus="0OBSERVED"></linearGradient><linearGradient xlink:href="#a" id="c" x1="20.936" x2="476.936" y1="559.728" y2="119.728" gradientUnits="userSpaceOnUse" data--h-bstatus="0OBSERVED"></linearGradient><linearGradient xlink:href="#a" id="d" x1="-180.096" x2="275.904" y1="351.392" y2="-88.608" gradientUnits="userSpaceOnUse" data--h-bstatus="0OBSERVED"></linearGradient><linearGradient xlink:href="#a" id="e" x1="-151.168" x2="304.832" y1="381.376" y2="-58.624" gradientUnits="userSpaceOnUse" data--h-bstatus="0OBSERVED"></linearGradient><linearGradient xlink:href="#a" id="f" x1="-120.264" x2="335.736" y1="413.4" y2="-26.6" gradientUnits="userSpaceOnUse" data--h-bstatus="0OBSERVED"></linearGradient><linearGradient xlink:href="#a" id="g" x1="-85.592" x2="370.408" y1="449.328" y2="9.328" gradientUnits="userSpaceOnUse" data--h-bstatus="0OBSERVED"></linearGradient><linearGradient xlink:href="#a" id="h" x1="-89.84" x2="366.16" y1="444.928" y2="4.928" gradientUnits="userSpaceOnUse" data--h-bstatus="0OBSERVED"></linearGradient><linearGradient xlink:href="#a" id="i" x1="-110.352" x2="345.648" y1="423.672" y2="-16.328" gradientUnits="userSpaceOnUse" data--h-bstatus="0OBSERVED"></linearGradient><linearGradient xlink:href="#a" id="j" x1="-44.776" x2="411.224" y1="491.632" y2="51.632" gradientUnits="userSpaceOnUse" data--h-bstatus="0OBSERVED"></linearGradient><linearGradient xlink:href="#a" id="k" x1="-100.008" x2="355.992" y1="434.392" y2="-5.608" gradientUnits="userSpaceOnUse" data--h-bstatus="0OBSERVED"></linearGradient><linearGradient xlink:href="#a" id="l" x1="-47.936" x2="408.064" y1="488.36" y2="48.36" gradientUnits="userSpaceOnUse" data--h-bstatus="0OBSERVED"></linearGradient><linearGradient xlink:href="#a" id="m" x1="2.208" x2="458.208" y1="540.328" y2="100.328" gradientUnits="userSpaceOnUse" data--h-bstatus="0OBSERVED"></linearGradient><linearGradient xlink:href="#a" id="n" x1="-32.96" x2="423.04" y1="503.872" y2="63.872" gradientUnits="userSpaceOnUse" data--h-bstatus="0OBSERVED"></linearGradient><linearGradient xlink:href="#a" id="o" x1="10.624" x2="466.624" y1="549.048" y2="109.048" gradientUnits="userSpaceOnUse" data--h-bstatus="0OBSERVED"></linearGradient><linearGradient xlink:href="#a" id="p" x1="19.04" x2="475.04" y1="557.768" y2="117.768" gradientUnits="userSpaceOnUse" data--h-bstatus="0OBSERVED"></linearGradient><linearGradient xlink:href="#a" id="q" x1="42.184" x2="498.184" y1="581.752" y2="141.752" gradientUnits="userSpaceOnUse" data--h-bstatus="0OBSERVED"></linearGradient><linearGradient xlink:href="#a" id="r" x1="50.6" x2="506.6" y1="590.472" y2="150.472" gradientUnits="userSpaceOnUse" data--h-bstatus="0OBSERVED"></linearGradient><path fill="url(&quot;#b&quot;)" d="M336 60.688 275.312 0H0v456h336zm-56-33.376L308.688 56H280zM16 440V16h248v56h56v368zm0 0" opacity="1" data-original="url(#b)" data--h-bstatus="0OBSERVED"></path><path fill="url(&quot;#c&quot;)" d="M320 16v16h32v432H24v16h344V16zm0 0" opacity="1" data-original="url(#c)" data--h-bstatus="0OBSERVED" class=""></path><path fill="url(&quot;#d&quot;)" d="M56 105.887 75.055 144H96V80H80v38.113L60.945 80H40v64h16zm0 0" opacity="1" data-original="url(#d)" data--h-bstatus="0OBSERVED" class=""></path><path fill="url(&quot;#e&quot;)" d="M152 128h-32v-8h32v-16h-32v-8h32V80h-48v64h48zm0 0" opacity="1" data-original="url(#e)" data--h-bstatus="0OBSERVED" class=""></path><path fill="url(&quot;#f&quot;)" d="M190.777 144 196 112.664 201.223 144h21.714l8.985-62.863-15.844-2.274-4.375 30.672L206.777 80h-21.554l-4.926 29.535-4.375-30.672-15.844 2.274L169.062 144zm0 0" opacity="1" data-original="url(#f)" data--h-bstatus="0OBSERVED"></path><path fill="url(&quot;#g&quot;)" d="M240 120h32v8h-32v16h48v-40h-32v-8h32V80h-48zm0 0" opacity="1" data-original="url(#g)" data--h-bstatus="0OBSERVED"></path><path fill="url(&quot;#h&quot;)" d="M40 192h248v16H40zm0 0" opacity="1" data-original="url(#h)" data--h-bstatus="0OBSERVED"></path><path fill="url(&quot;#i&quot;)" d="M40 232h80v16H40zm0 0" opacity="1" data-original="url(#i)" data--h-bstatus="0OBSERVED"></path><path fill="url(&quot;#j&quot;)" d="M144 232h144v16H144zm0 0" opacity="1" data-original="url(#j)" data--h-bstatus="0OBSERVED"></path><path fill="url(&quot;#k&quot;)" d="M40 272h40v16H40zm0 0" opacity="1" data-original="url(#k)" data--h-bstatus="0OBSERVED"></path><path fill="url(&quot;#l&quot;)" d="M104 272h128v16H104zm0 0" opacity="1" data-original="url(#l)" data--h-bstatus="0OBSERVED"></path><path fill="url(&quot;#m&quot;)" d="M256 272h32v16h-32zm0 0" opacity="1" data-original="url(#m)" data--h-bstatus="0OBSERVED"></path><path fill="url(&quot;#n&quot;)" d="M40 416h144V312H40zm16-88h112v72H56zm0 0" opacity="1" data-original="url(#n)" data--h-bstatus="0OBSERVED"></path><path fill="url(&quot;#o&quot;)" d="M208 312h80v16h-80zm0 0" opacity="1" data-original="url(#o)" data--h-bstatus="0OBSERVED"></path><path fill="url(&quot;#p&quot;)" d="M208 352h32v16h-32zm0 0" opacity="1" data-original="url(#p)" data--h-bstatus="0OBSERVED"></path><path fill="url(&quot;#q&quot;)" d="M256 352h32v16h-32zm0 0" opacity="1" data-original="url(#q)" data--h-bstatus="0OBSERVED"></path><path fill="url(&quot;#r&quot;)" d="M208 392h80v16h-80zm0 0" opacity="1" data-original="url(#r)" data--h-bstatus="0OBSERVED"></path></g></svg>