<svg xmlns="http://www.w3.org/2000/svg" version="1.1" xmlns:xlink="http://www.w3.org/1999/xlink" width="512" height="512" x="0" y="0" viewBox="0 0 500 500" style="enable-background:new 0 0 512 512" xml:space="preserve" class="" data--h-bstatus="0OBSERVED"><g data--h-bstatus="0OBSERVED"><path d="M374.786 234.922a32.437 32.437 0 0 0-4.37-14.48c5.478-7.948 2.038-16.558-.944-20.474a20.683 20.683 0 0 0-14.221-9.274c6.912-16.966-10.7-33.668-27.4-26.6-6.854-8.29-17.01-8.571-22.909-7.872a20.017 20.017 0 0 0-5.845-5.838c9.173-10.8 4.9-28-7.831-34.428-10.044-4.717-20.5-.028-25.428 2.864-8.341-3.339-15.223-1.438-19.974 2.4-8.462-9.343-24.392-8.237-32.376 1.275-5.581 6.6-5.793 14.349-4.815 20.067-9.413 1.1-15.56 8.769-16.7 17.193-10.064-2.821-18.7 1.451-22.328 3.719-16.31-3.684-32.3 8.274-27.865 24.938-4 4.78-4.662 12.177-1.932 21.368-12.539.89-22.006 13.332-20.054 25.7-16.251 9.626-10.246 34.552 8.793 35.588L155.229 455.5a16.01 16.01 0 0 0 15.583 13.849h153.949a16.009 16.009 0 0 0 15.583-13.849l26.645-184.435c19.658-1.124 25.087-27.19 7.797-36.143zm-240.864-10.9a11.384 11.384 0 0 1 9.881-3.2c5.514.855 10.164-5.17 7.948-10.279-2.936-7.391-3.4-13.6-1.15-15.461 2.412-1.99 2.752-5.119 2.232-8.156-2.247-13.133 10.684-13.577 13.975-12.759a11.289 11.289 0 0 0 8.662-1.371c3.3-2.061 9.892-4.937 16.949-1.034 4.415 2.612 10.421-1.063 10.136-6.175-.055-2.062.118-7.157 2.9-9.949 1.649-1.659 4.136-2.172 7.612-2.35 7.458-.381 7.882-7.287 7.181-9.544-1.912-5.456-1.738-14.746 6.545-17.359 5.384-1.792 9.73-.137 13.291 5.057a6.76 6.76 0 0 0 10.979.151c2.935-4.081 7.066-4.621 12.627-1.656a5.529 5.529 0 0 0 5.9-.462c.1-.071 14.45-8.967 20.684-.348 6.68 9.234-.324 15.37-2.613 17.378a6.67 6.67 0 0 0 1.742 11.081c3.447 1.476 6.057 3.526 6.494 5.1a6.8 6.8 0 0 0 8.031 4.85c3.5-.793 12.109-1.9 16.4 4.892a7.621 7.621 0 0 0 9.878 2.66c3.753-2.133 8.5-2.3 11.962.6a9.48 9.48 0 0 1-.991 15.671c-4.016 2.454-2.72 12.051 4.879 10.461 13.615-2.848 17.89 9.673 14.566 13.294a7.429 7.429 0 0 0-.8 9.037 27.245 27.245 0 0 1 3.678 8.665H130.6a11.639 11.639 0 0 1 3.322-8.791zm32.194 229.9-26.411-182.816h33.816l8.868 187.24h-11.577a4.9 4.9 0 0 1-4.696-4.421zm27.285 4.421-8.868-187.24h37.582v187.24zm69.057-187.24v187.24h-29.343V271.106zm11 187.24V271.106h37.582l-8.868 187.24zm56-4.421a4.9 4.9 0 0 1-4.7 4.421h-11.574l8.868-187.24h33.817zM366.1 260.106H129.47a8.144 8.144 0 1 1 0-16.288H366.1c10.718.375 10.858 15.856 0 16.288zM111.817 185.759c17.886-4.307 20.505-18.647 19.855-26.533 15.254-18.954-2.042-41.255-22.2-36.44a36.1 36.1 0 0 0-10.147 4.481c-21.918-5.556-34.431 18.926-24.462 33.488a23.085 23.085 0 0 0 11.469 8.333c1.521 14.439 15.023 18.677 25.485 16.671zm-14.661-20.744a5.539 5.539 0 0 0-4.7-5.649c-4.791-.862-12.118-4.408-9.606-13.578 2.823-10.306 13.819-7.934 15.9-7.294a5.507 5.507 0 0 0 5.054-.962 25.6 25.6 0 0 1 8.4-4.094 11.509 11.509 0 0 1 13.751 7.434c1.392 4.158.037 8.4-4.143 12.964a5.5 5.5 0 0 0-1.3 4.968c.306 1.306 2.655 13.131-11.1 16.217-8.79 1.973-12.399-6.221-12.256-10.006zM187.847 91.36c7.3 11.029 22.225 9.339 31.149 4.529 16.717.817 22.983-13.143 22.953-24.191 10.755-10.715 3.375-24.267-1.7-29.063-9.27-8.337-20.2-4.983-26.206-.775a26.2 26.2 0 0 0-16.074 1.11C188 47.165 186.363 57.781 187 64.67c-7.85 10.254-3.926 20.983.847 26.69zm8.96-21.257a5.556 5.556 0 0 0 1.378-4.895c-.044-.093-2.659-19.4 14.717-12.132a5.609 5.609 0 0 0 5.926-1c.762-.694 7.577-6.586 13.818-1.483 4.673 2.7 3.693 12.866.27 14.477-1.633.769-2.146 2.917-2 4.716.274 6.835-1.632 16.472-12.623 15.035a5.54 5.54 0 0 0-3.373.767c-1.952 1.177-8.569 4.265-13.224 3.042-1.763-.463-4.9-3.654-5.229-4.07-1.304-1.667-5.976-7.747.34-14.46zM404.035 118.244a20.312 20.312 0 0 0-14.769-12.655c-6.774-25.762-48.89-21.213-41.9 10.559-7.255 6.214-9.174 15.088-5.065 24.436 6.866 15.074 22.877 18.066 34.845 8.311 6.875 1.775 12.782 1.362 17.594-1.239 9.407-4.734 13.482-19.632 9.295-29.412zm-9.856 12.694c-2.09 8.845-8.962 9.262-16.654 6.594a5.553 5.553 0 0 0-5.759 1.423c-4.062 4.425-13.889 8.631-19.392-2.8-3.236-7.363.559-10.9 4.227-13.156 2.232-1.374 2.658-4.024 2.266-6.616-2.663-17.639 8.79-16.75 11.338-16.067 7.524 2.017 8.565 6.933 8.692 10.456a5.532 5.532 0 0 0 5.722 5.295c5.724-.129 11.911 5.375 9.56 14.871z" fill="#000000" opacity="1" data-original="#000000" class="" data--h-bstatus="0OBSERVED"></path><path d="M188.7 215.287c1.349 8.936 9.353 12.716 16.029 12.517 13.511-.177 20.064-11.83 19.127-20.18 4.908-6.517 4.5-12.43 3.177-16.395-4.193-12.09-18.038-14.974-28-8.336a16.956 16.956 0 0 0-20.458 12.661c-2.138 10.61 2.825 16.587 10.125 19.733zm9.76-21.21c4.722 1.659 4.4-1.912 10.378-3.547 3.931-1.074 11.252 4.824 5.182 11.732a5.486 5.486 0 0 0-1.313 4.908c.473 2.264.769 7.7-6.583 9.552-3.572.326-7.1-.094-6.7-5.416.107-2.82-2.107-4.489-4.68-5.647-8.952-4.029-4.876-14.601 3.717-11.582zM240.316 177.438c1.223 11.267 8.728 16.178 17.133 16.442 9.015.079 15.667-6.646 17.871-14.893 10.618-6.265 9.808-17.461 6.583-23.141-5.566-9.283-13.259-10.358-20.776-7.759-9.486-7.546-19.51-.289-22.685 4.137-7.276 10.346-3.434 20.2 1.874 25.214zm15.568-19.18a5.268 5.268 0 0 0 7.263 1.017c2.723-1.474 6.388-3.023 9.178 1.98 1.551 3.291.919 6.87-4.117 9.08-4.327 2.515-1.951 4.38-5.276 9.613a6.58 6.58 0 0 1-8.562 2.135c-.787-.438-3.184-1.774-3.174-7.312a6.411 6.411 0 0 0-2.337-4.509c-9.275-9.177 2.793-18.022 7.025-12.004zM283.632 202.486c-7.833 6.83-5.263 19.972 3.109 25.717 6.164 4.629 14.28 3.127 19.488-.851 22.016 5.679 28.828-26.783 9.308-32.84-1.624-5.492-5.835-9.435-12.038-11.1-13.791-3.142-22.208 7.495-19.867 19.074zm9.117 6.813c2.225-1.369 2.669-4.024 2.271-6.607-2.228-14.453 11.3-8.993 10.257-3.155-.525 2.947 2.612 5.309 5.624 5.3 8.379-.03 6.68 15.188-4.246 11.216a5.357 5.357 0 0 0-5.747 1.411c-2.5 2.709-7.567 4.578-10.353-1.395-1.562-3.553-.319-5.224 2.194-6.769z" fill="#000000" opacity="1" data-original="#000000" class="" data--h-bstatus="0OBSERVED"></path></g></svg>