<svg xmlns="http://www.w3.org/2000/svg" version="1.1" xmlns:xlink="http://www.w3.org/1999/xlink" width="512" height="512" x="0" y="0" viewBox="0 0 66 66" style="enable-background:new 0 0 512 512" xml:space="preserve" data--h-bstatus="0OBSERVED"><g data--h-bstatus="0OBSERVED"><g style="stroke-linecap: round; stroke-linejoin: round; stroke-miterlimit: 10;" data--h-bstatus="0OBSERVED" stroke="#000000" fill="none" stroke-width="1.5px"><path d="M54.6 14.2v-2.5c0-2.6-2.1-4.7-4.7-4.7s-4.7 2.1-4.7 4.7v2.5z" fill="#000000" opacity="1" data-original="#000000" data--h-bstatus="0OBSERVED" stroke="#000000" stroke-width="1.5px"></path><path d="M11.5 51.8v-40c0-2.6 2.1-4.8 4.8-4.8h33.6M45.1 30.3V14.2M45.1 46.4v7.9c0 2.6-2.1 4.7-4.7 4.7" fill="#000000" opacity="1" data-original="#000000" data--h-bstatus="0OBSERVED" stroke="#000000" stroke-width="1.5px"></path><path d="M11.5 51.8h24.2v2.5c0 2.6 2.1 4.7 4.7 4.7H6.7C4.1 59 2 56.9 2 54.3v-2.5zM33 33l-9.4 12.8" fill="#000000" opacity="1" data-original="#000000" data--h-bstatus="0OBSERVED" stroke="#000000" stroke-width="1.5px"></path><circle cx="32.4" cy="43.5" r="2.5" fill="#000000" opacity="1" data-original="#000000" data--h-bstatus="0OBSERVED" stroke="#000000" stroke-width="1.5px"></circle><circle cx="24.2" cy="35.3" r="2.5" fill="#000000" opacity="1" data-original="#000000" data--h-bstatus="0OBSERVED" stroke="#000000" stroke-width="1.5px"></circle><path d="M16.5 14.2h23.1v5.4H16.5zM16.5 23.7h23M16.5 27.8h15.9" fill="#000000" opacity="1" data-original="#000000" data--h-bstatus="0OBSERVED" stroke="#000000" stroke-width="1.5px"></path></g><g style="stroke-linecap: round; stroke-linejoin: round; stroke-miterlimit: 10;" data--h-bstatus="0OBSERVED" stroke="#000000" fill="none" stroke-width="1.5px"><path stroke-width="1.50022px" d="m40.026 39.507 18.659-14.78 2.67 3.371-18.659 14.78z" fill="#000000" opacity="1" data-original="#000000" data--h-bstatus="0OBSERVED" stroke="#000000"></path><path d="m40.1 39.5-2 4.3 4.6-.9" fill="#000000" opacity="1" data-original="#000000" data--h-bstatus="0OBSERVED" stroke="#000000" stroke-width="1.5px"></path><path stroke-width="1.50022px" d="m58.726 24.721 2.587-2.05 2.67 3.372-2.587 2.05z" fill="#000000" opacity="1" data-original="#000000" data--h-bstatus="0OBSERVED" stroke="#000000"></path><path d="m59.2 29.8 1.6 2-4.6 3.6M46.7 34.3l2.7 3.3" fill="#000000" opacity="1" data-original="#000000" data--h-bstatus="0OBSERVED" stroke="#000000" stroke-width="1.5px"></path></g></g></svg>